<svg xmlns="http://www.w3.org/2000/svg" width="230" height="230" fill="none"><circle cx="115" cy="115" r="115" fill="#17633D"/><path fill="#F4F1EF" d="M139.832 93.75c-.684-2.535-1.69-4.769-3.018-6.7a19.295 19.295 0 0 0-4.89-5.01c-1.932-1.37-4.145-2.396-6.641-3.08-2.495-.724-5.232-1.086-8.21-1.086-5.996 0-11.188 1.448-15.575 4.346-4.347 2.898-7.707 7.124-10.082 12.678-2.374 5.513-3.561 12.214-3.561 20.103 0 7.928 1.146 14.69 3.44 20.284 2.295 5.594 5.615 9.86 9.961 12.798 4.347 2.938 9.619 4.407 15.817 4.407 5.474 0 10.102-.885 13.885-2.656 3.824-1.811 6.721-4.367 8.693-7.667 1.972-3.3 2.958-7.184 2.958-11.651l5.554.664H118.1v-21.794h53.306v16.36c0 11.068-2.355 20.546-7.064 28.434-4.668 7.889-11.108 13.946-19.318 18.172-8.17 4.225-17.567 6.338-28.192 6.338-11.792 0-22.156-2.555-31.09-7.667-8.935-5.111-15.898-12.395-20.888-21.853-4.99-9.498-7.486-20.767-7.486-33.807 0-10.142 1.51-19.137 4.528-26.985 3.018-7.888 7.224-14.57 12.617-20.043 5.433-5.473 11.712-9.619 18.835-12.436 7.164-2.817 14.871-4.226 23.122-4.226 7.163 0 13.824 1.027 19.982 3.08 6.198 2.052 11.671 4.95 16.42 8.692 4.79 3.743 8.673 8.19 11.652 13.342 2.978 5.151 4.829 10.806 5.554 16.964h-30.246Z"/></svg>